<svg xmlns="http://www.w3.org/2000/svg" width="540" height="132" viewBox="3.00 38.00 540.00 132.00"><path fill="#FF2E6E" d="M39.05714285714286 58.0H104.11428571428571L101.48571428571428 73.11428571428571H54.30285714285714L49.83428571428571 98.61142857142858H90.70857142857143L88.08 113.72571428571429H47.20571428571428L40.76571428571428 150.0H22.89142857142857Z M95.83428571428571 135.28 102.53714285714285 97.16571428571429 117.25714285714285 84.54857142857144H154.7142857142857L166.80571428571426 99.26857142857143L160.10285714285715 137.6457142857143L145.77714285714285 150.0H107.92571428571428ZM138.54857142857142 135.54285714285714 143.93714285714285 130.94285714285715 148.66857142857143 103.60571428571428 144.85714285714283 99.00571428571429H124.22285714285714L118.8342857142857 103.60571428571428L113.97142857142856 130.94285714285715L117.78285714285713 135.54285714285714Z M211.49142857142857 150.0 200.58285714285714 130.02285714285713 182.57714285714286 150.0H162.46857142857144L192.82857142857142 116.74857142857144L174.6914285714286 84.54857142857144H193.74857142857144L204.13142857142856 103.73714285714286L221.34857142857143 84.54857142857144H241.45714285714286L212.01714285714286 117.01142857142858L230.54857142857142 150.0Z"/><path fill="#000000" d="M276.54857142857145 68.90857142857143H248.81714285714287L250.78857142857146 58.0H318.86857142857144L316.89714285714285 68.90857142857143H289.16571428571433L274.84000000000003 150.0H262.22285714285715Z M305.5942857142858 136.85714285714286 314.79428571428576 84.54857142857144H327.0171428571429L318.34285714285716 133.57142857142858L323.2057142857143 139.3542857142857H335.42857142857144L353.3028571428572 124.10857142857142L360.40000000000003 84.54857142857144H372.6228571428572L361.0571428571429 150.0H349.36L351.5942857142858 136.98857142857142L336.34857142857146 150.0H316.3714285714286Z M391.02285714285716 84.54857142857144H402.72L400.3542857142857 97.29714285714286L415.46857142857147 84.54857142857144H435.31428571428575L446.6171428571429 98.08571428571429L437.4171428571429 150.0H425.19428571428574L433.86857142857144 101.10857142857142L428.87428571428575 95.19428571428571H416.52000000000004L398.6457142857143 110.44L391.68 150.0H379.45714285714286Z M456.21142857142854 136.98857142857142 463.30857142857144 96.11428571428571 476.97714285714284 84.54857142857144H511.6742857142857L522.5828571428572 97.82285714285715L518.5085714285714 121.08571428571429H471.3257142857143L469.09142857142854 133.70285714285714L473.8228571428571 139.4857142857143H497.3485714285714L504.0514285714286 133.83428571428573L504.84 129.3657142857143H517.0628571428572L515.3542857142857 138.56571428571428L501.9485714285714 150.0H466.85714285714283ZM507.9942857142857 111.49142857142857 509.83428571428567 100.84571428571428 505.10285714285715 95.06285714285715H481.84L474.8742857142857 100.84571428571428L473.0342857142857 111.49142857142857Z"/></svg>